<?xml version="1.0" standalone="no"?>
<!DOCTYPE svg PUBLIC "-//W3C//DTD SVG 20010904//EN"
 "http://www.w3.org/TR/2001/REC-SVG-20010904/DTD/svg10.dtd">
<svg version="1.0" xmlns="http://www.w3.org/2000/svg"
 width="300.000000pt" height="300.000000pt" viewBox="0 0 300.000000 300.000000"
 preserveAspectRatio="xMidYMid meet">
<metadata>
Created by potrace 1.11, written by Peter Selinger 2001-2013
</metadata>
<g transform="translate(0.000000,300.000000) scale(0.100000,-0.100000)"
fill="#000000" stroke="none">
<path d="M734 2913 c-174 -203 -259 -302 -283 -328 -14 -16 -51 -59 -81 -95
-30 -35 -62 -72 -70 -80 -8 -9 -37 -43 -65 -75 -27 -32 -78 -91 -112 -131 -35
-39 -63 -74 -63 -78 0 -3 306 -6 680 -6 l680 0 0 425 0 425 -319 0 -319 0 -48
-57z"/>
<path d="M1560 2545 l0 -425 696 0 c423 0 694 4 692 9 -1 5 -23 31 -48 58 -25
26 -79 86 -120 133 -41 47 -79 90 -85 96 -5 6 -44 48 -85 94 -41 46 -80 88
-85 94 -6 6 -44 49 -85 96 -41 46 -79 90 -85 96 -5 6 -43 47 -84 92 l-73 82
-319 0 -319 0 0 -425z"/>
<path d="M50 1005 l0 -965 1450 0 1450 0 0 965 0 965 -1450 0 -1450 0 0 -965z
m1862 668 c30 -30 33 -39 36 -105 3 -64 1 -77 -20 -108 -41 -60 -37 -60 -448
-60 -354 0 -377 1 -407 20 -47 28 -65 70 -62 143 2 34 10 74 18 89 33 56 40
57 463 55 l388 -2 32 -32z"/>
</g>
</svg>
